
<svg xmlns="http://www.w3.org/2000/svg" version="1.1" xmlns:xlink="http://www.w3.org/1999/xlink" xmlns:svgjs="http://svgjs.dev/svgjs" width="2000" height="2000" viewBox="0 0 2000 2000"><g transform="matrix(1,0,0,1,-0.28443113772425477,-0.28443113772459583)"><svg viewBox="0 0 334 334" data-background-color="#ffffff" preserveAspectRatio="xMidYMid meet" height="2000" width="2000" xmlns="http://www.w3.org/2000/svg" xmlns:xlink="http://www.w3.org/1999/xlink"><g id="tight-bounds" transform="matrix(1,0,0,1,0.04749999999998522,0.04750000000001364)"><svg viewBox="0 0 333.90454557049503 333.90454557049503" height="333.90454557049503" width="333.90454557049503"><g><svg></svg></g><g><svg viewBox="0 0 333.90454557049503 333.90454557049503" height="333.90454557049503" width="333.90454557049503"><g><path d="M0 166.952c0-92.205 74.747-166.952 166.952-166.952 92.205 0 166.952 74.747 166.953 166.952 0 92.205-74.747 166.952-166.953 166.953-92.205 0-166.952-74.747-166.952-166.953zM166.952 324.338c86.922 0 157.386-70.464 157.386-157.386 0-86.922-70.464-157.386-157.386-157.386-86.922 0-157.386 70.464-157.386 157.386 0 86.922 70.464 157.386 157.386 157.386z" data-fill-palette-color="tertiary" fill="#000000" stroke="transparent"></path><ellipse rx="160.27418187383762" ry="160.27418187383762" cx="166.95227278524752" cy="166.95227278524752" fill="#000000" stroke="transparent" stroke-width="0" fill-opacity="1" data-fill-palette-color="tertiary"></ellipse></g><g transform="matrix(1,0,0,1,121.42558024215663,71.17305217166896)"><svg viewBox="0 0 91.05338508618176 191.55844122715712" height="191.55844122715712" width="91.05338508618176"><g><svg viewBox="0 0 91.05338508618176 191.55844122715712" height="191.55844122715712" width="91.05338508618176"><g><svg viewBox="0 0 164.4232342651054 345.91419558470875" height="191.55844122715712" width="91.05338508618176"><g transform="matrix(1,0,0,1,0,154.3557543575516)"><svg viewBox="0 0 164.4232342651054 191.55844122715712" height="191.55844122715712" width="164.4232342651054"><g id="textblocktransform"><svg viewBox="0 0 164.4232342651054 191.55844122715712" height="191.55844122715712" width="164.4232342651054" id="textblock"><g><svg viewBox="0 0 164.4232342651054 191.55844122715712" height="191.55844122715712" width="164.4232342651054"><g transform="matrix(1,0,0,1,0,0)"><svg width="164.4232342651054" viewBox="1.27 -34.08 29.88 34.81" height="191.55844122715712" data-palette-color="#ffffff"><path d="M26.81-17.87L26.81-17.87 28.17-17.87Q29-17.87 29.76-17.72 30.52-17.58 30.52-16.65L30.52-16.65Q30.86-14.7 28.22-14.75L28.22-14.75Q27.49-14.79 26.88-14.84 26.27-14.89 25.88-14.87 25.49-14.84 25.54-14.6L25.54-14.6Q26.03-13.18 26.59-11.43 27.15-9.67 27.83-7.91L27.83-7.91Q29.59-3.56 31.15-1.66L31.15-1.66Q30.32-0.63 29.22 0.05 28.13 0.73 28.05 0.73 27.98 0.73 27.93 0.68L27.93 0.68 21.04-13.82 7.71-10.55 7.23-8.5Q5.81-2.88 4.05-0.68L4.05-0.68Q3.76-0.2 2.83-0.59L2.83-0.59Q1.27-1.17 1.27-1.56L1.27-1.56Q1.27-1.66 2.29-4.39 3.32-7.13 4.37-9.94 5.42-12.74 6.57-15.82 7.71-18.9 8.74-21.68 9.77-24.46 10.6-26.68 11.43-28.91 11.77-29.91 12.11-30.91 12.23-31.67 12.35-32.42 12.6-32.96L12.6-32.96Q13.09-34.08 15.04-34.08L15.04-34.08Q17.14-32.91 18.29-31.03 19.43-29.15 20.24-27 21.04-24.85 21.83-22.66 22.61-20.46 23.93-18.65L23.93-18.65Q24.37-17.97 25.24-17.92 26.12-17.87 26.81-17.87ZM14.6-28.42L14.6-28.42Q14.21-25.44 12.84-22.31 11.47-19.19 10.64-17.46 9.81-15.72 9.23-14.26L9.23-14.26Q12.55-14.26 17.38-16.21L17.38-16.21Q18.6-16.75 19.73-17.19L19.73-17.19Q17.43-27 14.6-28.42Z" opacity="1" transform="matrix(1,0,0,1,0,0)" fill="#ffffff" class="wordmark-text-0" data-fill-palette-color="quaternary" id="text-0"></path></svg></g></svg></g></svg></g></svg></g><g transform="matrix(1,0,0,1,31.40483774463513,0)"><svg viewBox="0 0 101.61355877583514 109.13340378640926" height="109.13340378640926" width="101.61355877583514"><g><svg xmlns="http://www.w3.org/2000/svg" xmlns:xlink="http://www.w3.org/1999/xlink" version="1.1" x="0" y="0" viewBox="8.129565944023092 5.1000000000000005 83.7054340559769 89.9" enable-background="new 0 0 100 100" xml:space="preserve" height="109.13340378640926" width="101.61355877583514" class="icon-icon-0" data-fill-palette-color="quaternary" id="icon-0"><g fill="#ffffff" data-fill-palette-color="quaternary"><path fill="#ffffff" d="M91.1 29.5c0 0 0.1-0.1 0.1-0.1 0.1-0.2 0.1-0.4 0-0.5-1.1-1.4-3.9-2.4-5.6-3-0.4-0.2-0.7-0.3-0.9-0.3-0.5-0.2-1.7-1.6-2.4-2.4 0 0 0-0.1-0.1-0.1 0 0 0 0 0 0 0 0 0 0 0 0-0.9-0.7-1.2-1.4-1.5-2.2-0.5-1.3-1.1-2.8-4.2-4.6-2.8-1.6-6.7-2.3-9.8-2.8C64.2 13 62 12.6 61.5 12l-0.2-0.2c-1.3-1.6-2.9-3.7-2.7-6.2 0-0.2-0.1-0.5-0.4-0.5-0.2 0-0.5 0.1-0.5 0.3 0 0-1.1 4 0.9 7.2-1-0.6-2-1.5-2.3-2.3C56.2 10 56 9.8 55.7 9.9c-0.2 0.1-0.4 0.3-0.4 0.5 0 0.1 0.6 4.2 3.7 6-0.7 0-1.5-0.2-2.1-0.6-0.2-0.1-0.5-0.1-0.7 0.1-0.2 0.2-0.1 0.5 0.1 0.7 0.2 0.2 2.1 1.6 3.5 2.1-0.4 0.4-1.2 1-2.2 0.8-0.2 0-0.5 0.1-0.6 0.4-0.1 0.2 0.1 0.5 0.3 0.6l2 0.5c-3.5 5-9 12.5-10.2 13.1-2.3 1-14.5 12.6-23.9 34.6-0.1 0.2-0.2 0.5 0 0.7 0.1 0.2 0.3 0.3 0.8 0.3-1.3 1.6-5.2 6.4-9 11.2C7.6 93.1 8 93.7 8.2 94.2c0.2 0.4 0.6 0.6 1.2 0.7C9.7 95 10.1 95 10.5 95c2.4 0 6.2-1 7.9-2.4 2.2-1.9 16.1-16.9 17.3-18.3l3.3-1.3c0.4 0.5 0.5 0.7 0.5 0.7-0.1 0.7 0 9.7 0 10.6-0.3 1.6-1.1 7.1 0.2 8.1l1.2 1c0.2 0.1 0.4 0.1 0.6 0 0.2-0.1 0.2-0.3 0.2-0.5 0 0-1-3.3 0-5.3 1-2.1 1.8-2.7 3.6-2.8l2-0.1c0.2 0 0.3-0.1 0.4-0.3 0.1-0.2 0-0.4-0.1-0.5-0.3-0.3-1.7-1.9-2.6-2.1-0.4-0.1-0.9 0-1.5 0.4-0.5 0.3-1 0.2-1.4-0.1l-0.1-0.1-0.1-8 0.9-1.7c1.1-0.1 2.4-0.3 3.6-0.5l-1.9 1.3c-0.2 0.1-0.3 0.4-0.2 0.6 0.1 0.2 0.4 0.3 0.6 0.2l5.3-2.3c-0.4 0.5-0.9 1.1-1.4 1.6-0.2 0.2-0.2 0.4 0 0.6 0.1 0.2 0.4 0.2 0.6 0.1 1-0.6 2.6-1.4 3.6-1.9-0.4 1-1.1 2.4-1.6 2.9-0.2 0.2-0.2 0.4-0.1 0.6 0.1 0.2 0.4 0.3 0.6 0.2 1-0.5 2.4-1.3 3.3-2-0.2 1.3-0.5 2.6-0.9 2.8-0.2 0.1-0.4 0.3-0.3 0.7 0.1 0.2 0.2 0.3 0.4 0.3 0 0 0 0 0 0 0.1 0 0.2-0.1 0.4-0.2l0 0 0 0c0.7-0.5 2-1.7 3-3.4v1.9c0 0.2 0.2 0.4 0.4 0.5 0.2 0 0.4-0.1 0.5-0.3 0 0 0.1-0.2 0.2-0.5 1 1.1 2.4 2.9 2.8 3.5-0.2 1-1 5.3-0.6 7.3 0 0.2 0.2 0.4 0.4 0.4 0.2 0 0.4-0.1 0.5-0.3 0.6-2.1 2.1-5.6 3.3-5.9 1.9-0.5 2.7-0.7 2.7-0.7 0.2 0 0.4-0.2 0.4-0.5 0-0.1 0-1-1.4-1.5-0.9-0.3-2-0.3-2.5-0.3l-4.5-4.6c1.1-2.4 3-6 5.3-9.5l0.8-1.2c4.3-6.4 9.1-13.6 8.1-21.3-0.4-2.6-0.7-7 0.6-7.9 0.1-0.1 0.5-0.4 1.4 0.1l11.1 5c0.2 0.1 0.4 0 0.6-0.1 0.1-0.2 0.1-0.4 0-0.6-0.2-0.3-0.6-0.6-0.9-1 0.5 0 1 0 1.5-0.1 1.6-0.4 2.8-1.6 3.2-3.2C92 31.8 91.8 30.5 91.1 29.5zM43.9 83c0.5-0.3 0.8-0.3 0.8-0.3 0.3 0.1 0.8 0.5 1.4 1l-0.9 0c-2.1 0.1-3.3 0.9-4.5 3.3-0.7 1.5-0.6 3.3-0.4 4.6l-0.1-0.1c-0.6-0.5-0.4-4.1 0.2-7.3 0-4-0.1-10.1 0-10.6 0-0.3-0.1-0.6-0.4-1l1.4-0.2-0.6 1.2c0 0.1-0.1 0.2-0.1 0.2l0.1 8.4c0 0.2 0.1 0.3 0.2 0.4l0.3 0.2C42.2 83.4 43.1 83.5 43.9 83zM64.2 78.3c0.1 0.1 0.3 0.2 0.4 0.1 0 0 1.3-0.1 2.3 0.2 0.2 0.1 0.4 0.2 0.5 0.3-0.5 0.1-1.2 0.3-2.2 0.6-1.3 0.4-2.4 2.3-3.1 4 0.2-2.1 0.6-4.5 0.7-4.5 0-0.1 0-0.3-0.1-0.4-0.1-0.1-2.1-2.8-3.3-4l0.4-0.8L64.2 78.3zM73.5 41c1 7.3-3.8 14.4-8 20.6l-0.8 1.2c-2.5 3.7-4.4 7.5-5.5 9.9 0 0 0 0 0 0 0 0 0 0 0 0l-0.4 0.9V72c0-0.2-0.2-0.4-0.4-0.5-0.2 0-0.5 0.1-0.5 0.3-0.4 1.3-1.2 2.4-2 3.2 0.2-1 0.3-2.1 0.4-2.4 0-0.2-0.1-0.4-0.3-0.5-0.2-0.1-0.4 0-0.5 0.1-0.4 0.5-1.4 1.2-2.3 1.7 0.6-1.2 1-2.4 1.1-2.7 0.1-0.2 0-0.4-0.1-0.5-0.1-0.1-0.4-0.2-0.5-0.1 0 0-1.2 0.6-2.4 1.2 0.5-0.6 0.8-1.1 0.9-1.1 0.1-0.2 0.1-0.4 0-0.6-0.1-0.2-0.4-0.2-0.6-0.1L49 71.2c0.2-0.1 0.3-0.4 0.2-0.6-0.1-0.2-0.3-0.3-0.6-0.2-1.5 0.5-4.2 0.9-6.2 1.1 0 0 0 0 0 0 0 0 0 0 0 0l-3.3 0.5c0 0 0 0-0.1 0 0 0 0 0 0 0l-3.7 1.5c-0.1 0-0.1 0.1-0.2 0.1C35 73.7 20.1 90 17.8 91.8c-1.7 1.5-6.3 2.5-8.2 2.2-0.3-0.1-0.4-0.1-0.5-0.2 0.5-1.9 11.4-15.7 18.2-24.1 0-0.1 0.1-0.1 0.1-0.2 0.4-0.1 0.8-0.2 1.4-0.3-0.5 0.6-0.6 1.1-0.4 1.5 0.1 0.4 0.4 0.6 0.9 0.7l-12.6 16c-0.2 0.2-0.1 0.5 0.1 0.7 0.2 0.2 0.5 0.1 0.7-0.1l13.1-16.5 1.5-0.5c2.3-0.2 6.1-2.9 6.2-3l10.1-5.6c0 0 0 0 0 0 5-2.6 10.5-7.6 10.5-7.6 0.2-0.2 0.2-0.5 0-0.7-0.2-0.2-0.5-0.2-0.7 0-0.1 0-5.5 4.9-10.3 7.5 0 0 0 0 0 0 0 0 0 0 0 0l-10.2 5.6c-1.1 0.8-4.2 2.8-5.8 2.9 0 0-0.1 0-0.1 0l-1.6 0.6c-0.5 0-0.8-0.1-0.8-0.2-0.1-0.2 0.2-0.8 1.6-1.8 0 0 0 0 0.1 0 0.2-0.2 0.5-0.3 0.8-0.5 0.6-0.4 1.1-0.9 1.7-1.4 0.8-0.8 1.7-1.6 2.8-2 1.4-0.6 4.7-3.9 5.4-5.4 0.1-0.2 0-0.5-0.2-0.6-0.2-0.1-0.5 0-0.6 0.2-0.7 1.3-3.8 4.4-5 4.9-1.2 0.5-2.2 1.4-3 2.2-0.5 0.5-1 1-1.5 1.3-0.3 0.2-0.6 0.4-0.8 0.5-2.5 0.7-3.6 0.9-4.1 0.9 9.3-21.5 21.4-33 23.3-33.8 2-0.9 10.1-12.6 11-14 0.1-0.1 0.1-0.3 0.1-0.4-0.1-0.1-0.2-0.3-0.3-0.3l-0.7-0.2c0.9-0.5 1.4-1.3 1.4-1.4 0.1-0.1 0.1-0.3 0-0.4C61.1 18.1 61 18 60.8 18c-0.4-0.1-0.9-0.3-1.5-0.6 1.2 0 2.2-0.2 2.3-0.2 0.2-0.1 0.4-0.3 0.4-0.5 0-0.2-0.2-0.4-0.4-0.4-2.5-0.2-3.8-2.1-4.5-3.6 1.5 1.2 3.4 2 3.5 2 0.2 0.1 0.5 0 0.6-0.2 0.1-0.2 0.1-0.5-0.1-0.6-1.7-1.3-2.4-3.1-2.6-4.6 0.6 1.2 1.4 2.3 2.1 3.2l0.2 0.2c0.7 0.9 2.8 1.3 5.8 1.8 3.1 0.5 6.9 1.2 9.5 2.7 2.8 1.6 3.3 2.9 3.8 4.1 0.3 0.7 0.6 1.4 1.2 2.1-1.6 0.7-4.9 2.8-6.8 9.1C72.4 34.3 73.3 40.3 73.5 41zM76.8 32.2c-0.5-0.3-1-0.4-1.5-0.4 2.1-5.9 5.5-7.5 6.4-7.8 0.5 0.6 1.8 2 2.5 2.3 0.2 0.1 0.5 0.2 1 0.4 1 0.3 2.4 0.9 3.6 1.5l-2.3-0.4c0 0 0 0 0 0 0 0 0 0 0 0-3.1-0.6-5.3-0.9-6.4-1-1.3-0.1-2.3 0.4-2.6 1.2-0.3 1 0.3 2.2 1.8 3.2 1.7 1.2 4.2 3.2 6.1 4.8L76.8 32.2zM83.4 33.1c-1.2-1-2.4-1.9-3.4-2.6-1.2-0.9-1.6-1.7-1.5-2.1 0.1-0.4 0.7-0.6 1.4-0.6 0.1 0 0.1 0 0.2 0 0.9 0 2.6 0.3 4.9 0.7-1.1 0.8-1.8 2.1-1.8 3.5C83.2 32.4 83.3 32.7 83.4 33.1zM90.8 32.8c-0.3 1.2-1.3 2.2-2.5 2.5-1 0.2-2.1 0-2.9-0.6C84.6 34 84.2 33 84.2 32c0-1.5 1-2.8 2.4-3.2l3.1 0.6C90.7 30.2 91.1 31.5 90.8 32.8z" data-fill-palette-color="quaternary"></path><path fill="#ffffff" d="M75.8 25.3c0.9 0 1.4-0.4 1.4-0.5 0.1-0.1 0.2-0.3 0.1-0.4 0-0.1-0.6-2.6-2.3-2.9-1.5-0.2-3.4 0-3.5 0-0.1 0-0.3 0.1-0.4 0.2s-0.1 0.3 0 0.4c0 0.1 0.8 2 2.9 2.8C74.8 25.2 75.4 25.3 75.8 25.3zM72.4 22.4c0.7 0 1.7-0.1 2.5 0.1 0.8 0.1 1.2 1.1 1.4 1.8-0.3 0.1-0.9 0.2-1.9-0.2C73.4 23.7 72.8 22.9 72.4 22.4z" data-fill-palette-color="quaternary"></path></g></svg></g></svg></g><g></g></svg></g></svg></g></svg></g></svg></g><defs></defs></svg><rect width="333.90454557049503" height="333.90454557049503" fill="none" stroke="none" visibility="hidden"></rect></g></svg></g></svg>